<svg id="Layer_1" data-name="Layer 1" xmlns="http://www.w3.org/2000/svg" width="100" height="100" viewBox="0 0 100 100"><defs><style>.cls-1{fill:#1c364a;}.cls-2{fill:#e74727;}.cls-3{fill:#fff;}</style></defs><title>pricing</title><rect class="cls-1" width="100" height="100" rx="8.16"/><path class="cls-2" d="M68,40.11A4.14,4.14,0,1,0,72.17,36,4.14,4.14,0,0,0,68,40.11Z"/><path class="cls-3" d="M49.37,40.11A4.13,4.13,0,1,0,53.5,36,4.13,4.13,0,0,0,49.37,40.11Z"/><path class="cls-3" d="M58.7,48.11A4.13,4.13,0,1,0,62.83,44,4.13,4.13,0,0,0,58.7,48.11Z"/><path class="cls-3" d="M40,48.11A4.14,4.14,0,1,0,44.17,44,4.14,4.14,0,0,0,40,48.11Z"/><path class="cls-3" d="M58.7,32.11A4.13,4.13,0,1,0,62.83,28,4.13,4.13,0,0,0,58.7,32.11Z"/><path class="cls-3" d="M40,32.11A4.14,4.14,0,1,0,44.17,28,4.14,4.14,0,0,0,40,32.11Z"/><circle class="cls-3" cx="40.56" cy="84.11" r="5.89"/><circle class="cls-3" cx="72.31" cy="84.11" r="5.89"/><path class="cls-3" d="M89.15,22a3.14,3.14,0,0,0-2.52-1.18H31l-.59-4a8,8,0,0,0-8-6.82H13.28a3.2,3.2,0,1,0,0,6.4h9.09A1.56,1.56,0,0,1,24,17.75L31.3,66.17a9.87,9.87,0,0,0,9.77,8.42h35a3.2,3.2,0,0,0,0-6.4h-35a3.57,3.57,0,0,1-3.45-3L37,61.45h43a3.32,3.32,0,0,0,3.2-2.61l6.57-34.19A2.85,2.85,0,0,0,89.15,22ZM77.45,55.05H36.1L31.89,27.26H82.75Z"/></svg>