<svg id="Layer_1" data-name="Layer 1" xmlns="http://www.w3.org/2000/svg" width="149.5" height="32" viewBox="0 0 149.5 32"><defs><style>.cls-1{fill:#fff;}.cls-2{fill:#e74727;}</style></defs><title>revit-to-ifc-logo-white</title><polygon class="cls-1" points="66.67 4.4 66.67 9.94 61.85 9.94 61.85 27.6 94.66 27.6 94.66 4.4 66.67 4.4"/><path class="cls-2" d="M72.77,27.6V21.13L83,16,72.77,10.85V4.4L88.1,12.32v7.34Z"/><polygon class="cls-1" points="12.55 18.74 12.55 27.6 18.19 27.6 14.8 18.74 12.55 18.74"/><polygon class="cls-1" points="50.25 9.94 50.25 4.4 49.11 4.4 41.91 27.6 55.08 27.6 55.08 9.94 50.25 9.94"/><path class="cls-1" d="M18.67,4.4a8.75,8.75,0,0,1,5.15,1.84,6.22,6.22,0,0,1,2.22,5,7.41,7.41,0,0,1-.82,3.55,6.84,6.84,0,0,1-3.31,2.72l4.2,10.11H34.6L27.08,4.4Z"/><path class="cls-1" d="M15.84,9.3H12.55v4.46h3a3.74,3.74,0,0,0,2.17-.57,1.85,1.85,0,0,0,.82-1.65C18.59,10.05,17.67,9.3,15.84,9.3Z"/><rect class="cls-1" x="101.8" y="4.4" width="4.06" height="23.2"/><rect class="cls-1" y="4.4" width="5.4" height="23.2"/><path class="cls-1" d="M39,19.27,43.24,4.4H34.61l3.67,12.65C38.53,17.8,38.75,18.54,39,19.27Z"/><path class="cls-1" d="M123.93,16.2a13.49,13.49,0,0,1,2.76-8.84,8.78,8.78,0,0,1,4.6-3H122.7V9.9h-9.88v3.79h7.59v5.24h-7.59V27.6h18.56a9.48,9.48,0,0,1-4.54-2.74Q123.93,21.73,123.93,16.2Z"/><path class="cls-1" d="M149.49,4.4H137.7a8.09,8.09,0,0,1,3.81,2.16,10.53,10.53,0,0,1,2.8,6.79l-6.67.36a5.18,5.18,0,0,0-.89-3.38,2.69,2.69,0,0,0-2.11-1q-3.37,0-3.38,6.79c0,2.53.3,4.26.88,5.17a2.8,2.8,0,0,0,2.47,1.36q2.82,0,3.17-3.86l6.53.4a9.54,9.54,0,0,1-3.16,6.56,9.31,9.31,0,0,1-3.6,1.89h11.94Z"/></svg>