<svg id="Layer_1" data-name="Layer 1" xmlns="http://www.w3.org/2000/svg" width="100" height="100" viewBox="0 0 100 100"><defs><style>.cls-1{fill:#1c364a;}.cls-2,.cls-4{fill:#fff;}.cls-3{fill:#e74727;}.cls-4{font-size:14px;font-family:FranklinGothic-Heavy, Franklin Gothic Heavy;font-weight:800;}.cls-5{letter-spacing:-0.02em;}.cls-6{letter-spacing:0.03em;}</style></defs><title>revit-to-ifc</title><rect class="cls-1" width="100" height="100" rx="8.16"/><path class="cls-2" d="M38.64,74a4.5,4.5,0,0,0,4.5-4.5v-15a1.5,1.5,0,1,0-3,0v15a1.5,1.5,0,0,1-1.5,1.5H11.35a1.5,1.5,0,0,1-1.5-1.5v-39a1.5,1.5,0,0,1,1.5-1.5H29.89v7.75a2.5,2.5,0,0,0,2.5,2.5h7.75v3.25a1.5,1.5,0,0,0,3,0V37.72a1.31,1.31,0,0,0,0-.28h0a1.47,1.47,0,0,0-.13-.37V37a1.08,1.08,0,0,0-.24-.32L32.45,26.39a1.08,1.08,0,0,0-.32-.24h-.08a1.66,1.66,0,0,0-.37-.14H11.35a4.51,4.51,0,0,0-4.5,4.5v39A4.51,4.51,0,0,0,11.35,74Zm-5.75-42.9L38,36.22H32.89Z"/><path class="cls-2" d="M93.11,37.39A1.16,1.16,0,0,0,93,37v-.08a1.08,1.08,0,0,0-.24-.32L82.45,26.39a1.08,1.08,0,0,0-.32-.24h-.08a1.66,1.66,0,0,0-.37-.14H61.35a4.51,4.51,0,0,0-4.5,4.5v12a1.5,1.5,0,0,0,3,0v-12a1.5,1.5,0,0,1,1.5-1.5H79.89v7.75a2.49,2.49,0,0,0,2.5,2.5h7.75V69.49a1.5,1.5,0,0,1-1.5,1.5H61.35a1.5,1.5,0,0,1-1.5-1.5v-15a1.5,1.5,0,0,0-3,0v15a4.51,4.51,0,0,0,4.5,4.5H88.64a4.5,4.5,0,0,0,4.5-4.5V37.72a1.31,1.31,0,0,0,0-.28ZM82.89,36.22V31.09L88,36.22Z"/><path class="cls-3" d="M23.5,48.47A1.5,1.5,0,0,0,25,50H71.6l-1.31,1.32a1.5,1.5,0,1,0,1.9,2.31,1.1,1.1,0,0,0,.22-.21l3.87-3.87a1.49,1.49,0,0,0,0-2.12l-3.87-3.87a1.5,1.5,0,1,0-2.19,2l.07.08L71.6,47H25a1.49,1.49,0,0,0-1.5,1.49Z"/><text class="cls-4" transform="translate(12.13 64.53)"><tspan class="cls-5">R</tspan><tspan class="cls-6" x="9.45" y="0">V</tspan><tspan x="18.79" y="0">T</tspan></text><text class="cls-4" transform="translate(64.34 64.53)">IFC</text></svg>