<svg id="Layer_1" data-name="Layer 1" xmlns="http://www.w3.org/2000/svg" width="100" height="100" viewBox="0 0 100 100"><defs><style>.cls-1{fill:#1c364a;}.cls-2{fill:#fff;}.cls-3{fill:#e74727;}</style></defs><title>settings</title><rect class="cls-1" width="100" height="100" rx="8.16"/><path class="cls-2" d="M10,50.36a3.8,3.8,0,0,0,3.79,3.8H55.16a11.72,11.72,0,0,0,22,0h9a3.8,3.8,0,0,0,0-7.59H77.36a11.75,11.75,0,0,0-22.39,0H13.79A3.79,3.79,0,0,0,10,50.36Zm52-.25a4.14,4.14,0,1,1,4.14,4.14A4.13,4.13,0,0,1,62,50.11Z"/><path class="cls-2" d="M86.21,69.82H45a11.75,11.75,0,0,0-22.39,0H13.79a3.8,3.8,0,0,0,0,7.59h9a11.72,11.72,0,0,0,22,0H86.21a3.8,3.8,0,0,0,0-7.59ZM33.83,77.5A4.14,4.14,0,1,1,38,73.36,4.13,4.13,0,0,1,33.83,77.5Z"/><path class="cls-2" d="M86.21,23.07H45a11.75,11.75,0,0,0-22.39,0H13.79a3.8,3.8,0,0,0,0,7.59h9a11.72,11.72,0,0,0,22,0H86.21a3.8,3.8,0,0,0,0-7.59ZM33.83,30.75A4.14,4.14,0,1,1,38,26.61,4.13,4.13,0,0,1,33.83,30.75Z"/><path class="cls-3" d="M62,50.11A4.14,4.14,0,1,0,66.17,46,4.14,4.14,0,0,0,62,50.11Z"/></svg>