<svg id="Layer_1" data-name="Layer 1" xmlns="http://www.w3.org/2000/svg" width="229.5" height="32" viewBox="0 0 229.5 32"><defs><style>.cls-1{fill:#fff;}</style></defs><title>revit-to-ifc-logo-white</title><path class="cls-1" d="M139.24,9.08q-3.63,0-3.63,7.14,0,6.71,3.48,6.7a2.79,2.79,0,0,0,2.69-1.63c.54-1.08.81-3.07.81-5.95Q142.59,9.09,139.24,9.08Z"/><polygon class="cls-1" points="83.79 9.75 83.79 4 81.7 4 81.7 28 88.77 28 88.77 9.75 83.79 9.75"/><polygon class="cls-1" points="109.73 9.75 109.73 4 100.72 4 100.72 9.75 95.75 9.75 95.75 28 114.7 28 114.7 9.75 109.73 9.75"/><rect class="cls-1" y="4" width="5.52" height="24"/><path class="cls-1" d="M130.87,25a12.53,12.53,0,0,1-3.19-9,13.08,13.08,0,0,1,3-8.89A9.82,9.82,0,0,1,135.94,4h-9.28V9.75h-5V28H136A10.46,10.46,0,0,1,130.87,25Z"/><polygon class="cls-1" points="72.12 4 64.67 28 74.33 28 74.33 4 72.12 4"/><polygon class="cls-1" points="12.89 18.82 12.89 28 18.71 28 15.21 18.82 12.89 18.82"/><path class="cls-1" d="M16.28,9.1H12.89v4.59H16a4,4,0,0,0,2.24-.58,2,2,0,0,0,.84-1.71C19.11,9.87,18.17,9.1,16.28,9.1Z"/><path class="cls-1" d="M18.18,4A9.64,9.64,0,0,1,24.5,5.94a6.41,6.41,0,0,1,2.3,5.13A7.72,7.72,0,0,1,26,14.73a7.11,7.11,0,0,1-3.41,2.81L26.88,28h3.49V4Z"/><path class="cls-1" d="M61.62,19.37,66.06,4H57.14l3.79,13.08C61.19,17.86,61.42,18.62,61.62,19.37Z"/><polygon class="cls-1" points="48.43 4 48.43 9.54 37.59 9.54 37.59 13.02 46.35 13.02 46.35 18.35 37.59 18.35 37.59 22.27 48.43 22.27 48.43 28 57.16 28 49.37 4 48.43 4"/><rect class="cls-1" x="170.01" y="4" width="4.19" height="24"/><path class="cls-1" d="M221.69,4H206.88a8.35,8.35,0,0,1,4.06,2.27,10.9,10.9,0,0,1,2.89,7l-6.87.36a5.29,5.29,0,0,0-.93-3.48,2.79,2.79,0,0,0-2.17-1.07q-3.48,0-3.48,7,0,3.92.9,5.33a2.87,2.87,0,0,0,2.55,1.4q2.91,0,3.27-4l6.73.4A9.82,9.82,0,0,1,210.57,26a9.67,9.67,0,0,1-3.84,2h15Z"/><path class="cls-1" d="M142.34,4a10.34,10.34,0,0,1,5,2.93,12.28,12.28,0,0,1,3.15,8.83,13,13,0,0,1-3.18,9.16A10.31,10.31,0,0,1,142.22,28h20.42V4Z"/><path class="cls-1" d="M195.82,25.14q-3-3.24-3-8.94a13.89,13.89,0,0,1,2.85-9.11A9.13,9.13,0,0,1,200.53,4h-9V9.71H181.37v3.91h7.82V19h-7.82v9h19.27A9.74,9.74,0,0,1,195.82,25.14Z"/></svg>