<svg id="Layer_1" data-name="Layer 1" xmlns="http://www.w3.org/2000/svg" width="192.5" height="32" viewBox="0 0 192.5 32"><defs><style>.cls-1{fill:#fff;}.cls-2{fill:#e74727;}</style></defs><title>revit-to-ifc-logo-white</title><polygon class="cls-1" points="101.28 4 101.28 9.73 96.29 9.73 96.29 28 132.85 28 132.85 4 101.28 4"/><polygon class="cls-1" points="13.14 18.83 13.14 28 18.98 28 15.47 18.83 13.14 18.83"/><path class="cls-1" d="M16.55,9.07H13.14v4.61H16.3a3.86,3.86,0,0,0,2.24-.58,1.94,1.94,0,0,0,.85-1.71C19.39,9.84,18.44,9.07,16.55,9.07Z"/><path class="cls-1" d="M62.05,19.38,66.49,4H57.56l3.8,13.09C61.62,17.86,61.85,18.63,62.05,19.38Z"/><polygon class="cls-1" points="48.8 4 48.8 9.52 37.94 9.52 37.94 13.01 46.72 13.01 46.72 18.36 37.94 18.36 37.94 22.29 48.8 22.29 48.8 28 57.55 28 49.77 4 48.8 4"/><polygon class="cls-1" points="84.29 9.73 84.29 4 82.19 4 82.19 28 89.28 28 89.28 9.73 84.29 9.73"/><path class="cls-1" d="M19,4A9.33,9.33,0,0,1,24.8,5.91a6.41,6.41,0,0,1,2.3,5.14,7.69,7.69,0,0,1-.85,3.68,7.1,7.1,0,0,1-3.42,2.81L27.17,28h3.51V4Z"/><rect class="cls-1" x="140.24" y="4" width="4.2" height="24"/><path class="cls-1" d="M163.13,16.2A13.92,13.92,0,0,1,166,7.06,9.11,9.11,0,0,1,170.75,4h-8.89V9.69H151.64v3.92h7.86V19h-7.86v9h19.2a9.77,9.77,0,0,1-4.69-2.83Q163.14,21.92,163.13,16.2Z"/><path class="cls-1" d="M188.69,4H177.21a8.46,8.46,0,0,1,4.11,2.23,11,11,0,0,1,2.9,7l-6.9.37a5.33,5.33,0,0,0-.93-3.5,2.81,2.81,0,0,0-2.18-1.07q-3.5,0-3.49,7c0,2.62.3,4.41.91,5.35a2.86,2.86,0,0,0,2.55,1.41q2.92,0,3.28-4l6.76.41a9.86,9.86,0,0,1-3.28,6.79A9.61,9.61,0,0,1,177.11,28h11.58Z"/><polygon class="cls-1" points="72.56 4 65.12 28 74.8 28 74.8 4 72.56 4"/><rect class="cls-1" y="4" width="5.75" height="24"/><path class="cls-2" d="M109.37,27.79V21.2L119.77,16l-10.4-5.25V4.12L125,12.2v7.49Z"/></svg>